<?xml version="1.0" encoding="UTF-8"?>
<!DOCTYPE svg PUBLIC "-//W3C//DTD SVG 1.1//EN" "http://www.w3.org/Graphics/SVG/1.1/DTD/svg11.dtd">
<svg xmlns="http://www.w3.org/2000/svg" version="1.1" width="2126px" height="324px" style="shape-rendering:geometricPrecision; text-rendering:geometricPrecision; image-rendering:optimizeQuality; fill-rule:evenodd; clip-rule:evenodd" xmlns:xlink="http://www.w3.org/1999/xlink">
<g><path style="opacity:1" fill="#030303" d="M 1513.5,100.5 C 1515.95,101.473 1518.61,101.806 1521.5,101.5C 1521.5,153.167 1521.5,204.833 1521.5,256.5C 1508.5,256.5 1495.5,256.5 1482.5,256.5C 1482.5,249.5 1482.5,242.5 1482.5,235.5C 1478.17,235.5 1473.83,235.5 1469.5,235.5C 1469.5,181.833 1469.5,128.167 1469.5,74.5C 1473.55,74.8242 1477.55,74.4909 1481.5,73.5C 1479.36,69.0737 1478.03,64.407 1477.5,59.5C 1465.48,50.4301 1461.98,38.7634 1467,24.5C 1476.84,8.59548 1490,5.09548 1506.5,14C 1515.39,20.943 1519.55,30.1096 1519,41.5C 1522.59,44.3532 1524.93,48.0199 1526,52.5C 1527.96,61.3931 1526.3,69.3931 1521,76.5C 1518.86,78.8267 1516.36,80.4934 1513.5,81.5C 1513.5,87.8333 1513.5,94.1667 1513.5,100.5 Z"/></g>
<g><path style="opacity:1" fill="#9c9c9c" d="M 1496.5,14.5 C 1491.34,14.1817 1486.34,14.8483 1481.5,16.5C 1482.35,15.0337 1483.68,14.2004 1485.5,14C 1489.36,13.1901 1493.02,13.3567 1496.5,14.5 Z"/></g>
<g><path style="opacity:1" fill="#fec62e" d="M 1496.5,14.5 C 1508.06,17.883 1513.56,25.5497 1513,37.5C 1501.37,33.1258 1491.37,35.4591 1483,44.5C 1481.37,47.6319 1479.53,50.6319 1477.5,53.5C 1470.11,47.1557 1467.61,39.1557 1470,29.5C 1471.58,23.0889 1475.42,18.7556 1481.5,16.5C 1486.34,14.8483 1491.34,14.1817 1496.5,14.5 Z"/></g>
<g><path style="opacity:1" fill="#484848" d="M 123.5,16.5 C 123.5,16.1667 123.5,15.8333 123.5,15.5C 138.833,15.5 154.167,15.5 169.5,15.5C 169.5,23.5 169.5,31.5 169.5,39.5C 168.508,32.0182 168.175,24.3516 168.5,16.5C 153.5,16.5 138.5,16.5 123.5,16.5 Z"/></g>
<g><path style="opacity:1" fill="#cecece" d="M 121.5,15.5 C 121.5,71.1667 121.5,126.833 121.5,182.5C 97.8333,182.5 74.1667,182.5 50.5,182.5C 73.6607,181.502 96.994,181.169 120.5,181.5C 120.168,125.997 120.501,70.6642 121.5,15.5 Z"/></g>
<g><path style="opacity:1" fill="#848484" d="M 121.5,15.5 C 122.167,15.5 122.833,15.5 123.5,15.5C 123.5,15.8333 123.5,16.1667 123.5,16.5C 122.833,71.8333 122.167,127.167 121.5,182.5C 121.5,126.833 121.5,71.1667 121.5,15.5 Z"/></g>
<g><path style="opacity:1" fill="#010101" d="M 123.5,16.5 C 138.5,16.5 153.5,16.5 168.5,16.5C 168.175,24.3516 168.508,32.0182 169.5,39.5C 184.991,40.4963 200.658,40.8296 216.5,40.5C 215.868,48.5729 216.535,56.2395 218.5,63.5C 225.5,63.5 232.5,63.5 239.5,63.5C 239.5,94.8333 239.5,126.167 239.5,157.5C 232.5,157.5 225.5,157.5 218.5,157.5C 217.508,150.018 217.175,142.352 217.5,134.5C 209.833,134.5 202.167,134.5 194.5,134.5C 194.83,118.658 194.496,102.991 193.5,87.5C 185.684,86.5076 177.684,86.1743 169.5,86.5C 169.5,150.167 169.5,213.833 169.5,277.5C 162.167,277.5 154.833,277.5 147.5,277.5C 146.833,277.5 146.167,277.5 145.5,277.5C 144.508,284.982 144.175,292.648 144.5,300.5C 113.5,300.5 82.5,300.5 51.5,300.5C 51.8254,292.648 51.492,284.982 50.5,277.5C 50.1667,277.5 49.8333,277.5 49.5,277.5C 42.6866,276.509 35.6866,276.175 28.5,276.5C 28.5,253.167 28.5,229.833 28.5,206.5C 35.8333,206.5 43.1667,206.5 50.5,206.5C 51.492,199.018 51.8254,191.352 51.5,183.5C 75.006,183.831 98.3393,183.498 121.5,182.5C 122.167,127.167 122.833,71.8333 123.5,16.5 Z"/></g>
<g><path style="opacity:1" fill="#040404" d="M 572.5,103.5 C 572.5,106.833 572.5,110.167 572.5,113.5C 558.496,113.333 544.496,113.5 530.5,114C 531.044,114.717 531.711,115.217 532.5,115.5C 545.378,121.878 555.545,131.211 563,143.5C 566.806,157.449 571.473,171.116 577,184.5C 579.676,219.979 564.176,243.479 530.5,255C 505.853,262.961 481.519,262.295 457.5,253C 438.339,243.505 425.172,228.671 418,208.5C 407.476,195.429 402.309,180.429 402.5,163.5C 419.833,163.5 437.167,163.5 454.5,163.5C 455.71,175.703 462.377,183.203 474.5,186C 487.007,188.303 499.007,186.803 510.5,181.5C 512.909,180.299 514.909,178.633 516.5,176.5C 498.501,169.619 480.167,163.786 461.5,159C 442.14,151.976 429.307,138.81 423,119.5C 405.65,98.2499 402.983,75.2499 415,50.5C 425.923,33.4404 441.423,22.9404 461.5,19C 491.165,12.5725 517.831,18.5725 541.5,37C 549.024,44.5612 555.191,53.0612 560,62.5C 563.619,76.3862 567.786,90.0529 572.5,103.5 Z"/></g>
<g><path style="opacity:1" fill="#fec62e" d="M 421.5,94.5 C 420.833,99.1667 420.167,103.833 419.5,108.5C 412.785,95.012 410.618,80.6787 413,65.5C 421.733,42.4427 438.233,28.276 462.5,23C 493.81,16.3362 520.976,23.8362 544,45.5C 550.694,52.7084 555.528,61.0417 558.5,70.5C 535.97,47.8378 508.304,39.3378 475.5,45C 453.983,48.8357 437.483,60.0024 426,78.5C 423.87,83.6897 422.37,89.0231 421.5,94.5 Z"/></g>
<g><path style="opacity:1" fill="#848484" d="M 1327.5,21.5 C 1312.83,21.5 1298.17,21.5 1283.5,21.5C 1283.5,92.8333 1283.5,164.167 1283.5,235.5C 1287.83,235.5 1292.17,235.5 1296.5,235.5C 1296.5,242.833 1296.5,250.167 1296.5,257.5C 1295.51,250.687 1295.18,243.687 1295.5,236.5C 1291.17,236.5 1286.83,236.5 1282.5,236.5C 1282.5,164.5 1282.5,92.5 1282.5,20.5C 1297.68,20.1706 1312.68,20.5039 1327.5,21.5 Z"/></g>
<g><path style="opacity:1" fill="#030303" d="M 1327.5,21.5 C 1327.5,30.1667 1327.5,38.8333 1327.5,47.5C 1330.5,47.5 1333.5,47.5 1336.5,47.5C 1336.33,74.1687 1336.5,100.835 1337,127.5C 1351,110.002 1365.17,92.669 1379.5,75.5C 1396.67,75.1701 1413.67,75.5034 1430.5,76.5C 1424.5,84.1667 1418.5,91.8333 1412.5,99.5C 1411.96,99.56 1411.62,99.8933 1411.5,100.5C 1420.32,101.167 1428.99,101.833 1437.5,102.5C 1421.17,122.469 1404.84,142.469 1388.5,162.5C 1407.57,186.233 1426.24,210.233 1444.5,234.5C 1441.83,235.167 1439.17,235.833 1436.5,236.5C 1441.48,243.148 1446.48,249.815 1451.5,256.5C 1436.18,257.666 1420.84,257.833 1405.5,257C 1382.3,228.105 1359.47,198.939 1337,169.5C 1336.5,198.831 1336.33,228.165 1336.5,257.5C 1323.17,257.5 1309.83,257.5 1296.5,257.5C 1296.5,250.167 1296.5,242.833 1296.5,235.5C 1292.17,235.5 1287.83,235.5 1283.5,235.5C 1283.5,164.167 1283.5,92.8333 1283.5,21.5C 1298.17,21.5 1312.83,21.5 1327.5,21.5 Z"/></g>
<g><path style="opacity:1" fill="#a7a7a7" d="M 1327.5,21.5 C 1328.49,29.6499 1328.83,37.9832 1328.5,46.5C 1331.39,46.1936 1334.05,46.5269 1336.5,47.5C 1333.5,47.5 1330.5,47.5 1327.5,47.5C 1327.5,38.8333 1327.5,30.1667 1327.5,21.5 Z"/></g>
<g><path style="opacity:1" fill="#040404" d="M 1705.5,190.5 C 1706.21,191.404 1707.21,191.737 1708.5,191.5C 1708.17,199.684 1708.51,207.684 1709.5,215.5C 1711.38,216.341 1713.38,216.675 1715.5,216.5C 1717.45,229.587 1718.12,242.92 1717.5,256.5C 1714.83,256.5 1712.17,256.5 1709.5,256.5C 1679.36,252.016 1658.53,235.683 1647,207.5C 1637.53,195.755 1631.53,182.422 1629,167.5C 1628.5,118.834 1628.33,70.1678 1628.5,21.5C 1643.5,21.5 1658.5,21.5 1673.5,21.5C 1673.5,30.1667 1673.5,38.8333 1673.5,47.5C 1676.5,47.5 1679.5,47.5 1682.5,47.5C 1682.5,56.8333 1682.5,66.1667 1682.5,75.5C 1691.17,75.5 1699.83,75.5 1708.5,75.5C 1708.5,84.1667 1708.5,92.8333 1708.5,101.5C 1711.5,101.5 1714.5,101.5 1717.5,101.5C 1717.5,114.167 1717.5,126.833 1717.5,139.5C 1705.83,139.5 1694.17,139.5 1682.5,139.5C 1682.33,153.171 1682.5,166.837 1683,180.5C 1688.92,187.357 1696.42,190.69 1705.5,190.5 Z"/></g>
<g><path style="opacity:1" fill="#c2c2c2" d="M 1296.5,47.5 C 1296.5,108.833 1296.5,170.167 1296.5,231.5C 1293.5,231.5 1290.5,231.5 1287.5,231.5C 1287.5,162.833 1287.5,94.1667 1287.5,25.5C 1299.5,25.5 1311.5,25.5 1323.5,25.5C 1323.5,32.8333 1323.5,40.1667 1323.5,47.5C 1314.5,47.5 1305.5,47.5 1296.5,47.5 Z"/></g>
<g><path style="opacity:1" fill="#fec62e" d="M 1296.5,47.5 C 1295.5,108.331 1295.17,169.331 1295.5,230.5C 1293.17,230.5 1290.83,230.5 1288.5,230.5C 1288.5,162.5 1288.5,94.5 1288.5,26.5C 1299.83,26.5 1311.17,26.5 1322.5,26.5C 1322.5,33.1667 1322.5,39.8333 1322.5,46.5C 1313.65,46.1736 1304.98,46.507 1296.5,47.5 Z"/></g>
<g><path style="opacity:1" fill="#fec62e" d="M 1632.5,25.5 C 1644.5,25.5 1656.5,25.5 1668.5,25.5C 1668.5,32.8333 1668.5,40.1667 1668.5,47.5C 1659.5,47.5 1650.5,47.5 1641.5,47.5C 1641.36,95.8674 1641.52,144.201 1642,192.5C 1637,184.171 1634,175.171 1633,165.5C 1632.5,118.835 1632.33,72.1679 1632.5,25.5 Z"/></g>
<g><path style="opacity:1" fill="#bcbcbc" d="M 169.5,15.5 C 170.492,22.9818 170.825,30.6484 170.5,38.5C 186.009,38.1705 201.342,38.5038 216.5,39.5C 200.833,39.5 185.167,39.5 169.5,39.5C 169.5,31.5 169.5,23.5 169.5,15.5 Z"/></g>
<g><path style="opacity:1" fill="#424242" d="M 169.5,39.5 C 185.167,39.5 200.833,39.5 216.5,39.5C 217.195,47.4006 217.862,55.4006 218.5,63.5C 216.535,56.2395 215.868,48.5729 216.5,40.5C 200.658,40.8296 184.991,40.4963 169.5,39.5 Z"/></g>
<g><path style="opacity:1" fill="#3e3e3e" d="M 239.5,63.5 C 240.833,78.9856 241.499,94.819 241.5,111C 241.5,127.004 241.167,142.837 240.5,158.5C 232.981,158.825 225.648,158.492 218.5,157.5C 225.5,157.5 232.5,157.5 239.5,157.5C 239.5,126.167 239.5,94.8333 239.5,63.5 Z"/></g>
<g><path style="opacity:1" fill="#040404" d="M 654.5,250.5 C 654.44,249.957 654.107,249.624 653.5,249.5C 652.5,269.822 652.167,290.156 652.5,310.5C 639.167,310.5 625.833,310.5 612.5,310.5C 612.5,303.5 612.5,296.5 612.5,289.5C 608.702,288.517 604.702,288.183 600.5,288.5C 600.5,239.833 600.5,191.167 600.5,142.5C 605.996,113.707 621.996,92.874 648.5,80C 685.668,66.7143 717.835,74.2143 745,102.5C 748.824,106.814 752.157,111.481 755,116.5C 759.418,128.557 764.085,140.557 769,152.5C 778.732,187.295 770.565,217.129 744.5,242C 716.205,263.23 686.205,266.063 654.5,250.5 Z"/></g>
<g><path style="opacity:1" fill="#030303" d="M 863.5,73.5 C 864.833,73.5 866.167,73.5 867.5,73.5C 867.174,82.3494 867.507,91.0161 868.5,99.5C 869.833,99.5 871.167,99.5 872.5,99.5C 873.833,99.5 875.167,99.5 876.5,99.5C 876.5,112.833 876.5,126.167 876.5,139.5C 866.209,139.73 858.043,144.063 852,152.5C 849.646,156.203 848.146,160.203 847.5,164.5C 846.502,194.995 846.169,225.662 846.5,256.5C 833.5,256.5 820.5,256.5 807.5,256.5C 807.825,249.313 807.491,242.313 806.5,235.5C 802.167,235.5 797.833,235.5 793.5,235.5C 793.333,202.165 793.5,168.832 794,135.5C 799.636,106.195 816.469,86.3619 844.5,76C 850.765,74.5797 857.098,73.7464 863.5,73.5 Z"/></g>
<g><path style="opacity:1" fill="#989898" d="M 863.5,73.5 C 864.919,72.5489 866.585,72.2155 868.5,72.5C 868.5,81.5 868.5,90.5 868.5,99.5C 867.507,91.0161 867.174,82.3494 867.5,73.5C 866.167,73.5 864.833,73.5 863.5,73.5 Z"/></g>
<g><path style="opacity:1" fill="#030303" d="M 1257.5,256.5 C 1244.17,256.5 1230.83,256.5 1217.5,256.5C 1217.5,249.5 1217.5,242.5 1217.5,235.5C 1213.17,235.5 1208.83,235.5 1204.5,235.5C 1204.83,206.995 1204.5,178.662 1203.5,150.5C 1203.14,148.629 1202.14,147.129 1200.5,146C 1177.18,133.586 1158.35,138.419 1144,160.5C 1141.69,165.589 1140.53,170.923 1140.5,176.5C 1139.5,202.995 1139.17,229.661 1139.5,256.5C 1126.5,256.5 1113.5,256.5 1100.5,256.5C 1100.82,249.313 1100.49,242.313 1099.5,235.5C 1095.5,235.5 1091.5,235.5 1087.5,235.5C 1087.23,202.819 1087.56,170.152 1088.5,137.5C 1096.12,106.544 1115.12,86.2106 1145.5,76.5C 1148.15,76.5905 1150.49,75.9238 1152.5,74.5C 1190.09,70.0493 1218.93,83.716 1239,115.5C 1243.32,126.455 1247.65,137.455 1252,148.5C 1254.07,154.048 1255.74,159.715 1257,165.5C 1257.5,195.832 1257.67,226.165 1257.5,256.5 Z"/></g>
<g><path style="opacity:1" fill="#040404" d="M 1908.5,160.5 C 1908.68,163.727 1909.34,166.727 1910.5,169.5C 1912.62,212.113 1893.95,241.279 1854.5,257C 1816.42,266.198 1785.92,255.031 1763,223.5C 1755.26,210.085 1747.93,196.418 1741,182.5C 1731.46,147.174 1739.96,117.007 1766.5,92C 1795.28,70.9523 1825.95,67.9523 1858.5,83C 1875.52,92.3555 1888.02,105.856 1896,123.5C 1899.41,136.159 1903.58,148.492 1908.5,160.5 Z"/></g>
<g><path style="opacity:1" fill="#050505" d="M 2008.5,258.5 C 2006.09,257.232 2003.43,256.565 2000.5,256.5C 1995.05,254.842 1989.88,252.509 1985,249.5C 1984.5,269.831 1984.33,290.164 1984.5,310.5C 1971.17,310.5 1957.83,310.5 1944.5,310.5C 1944.5,303.5 1944.5,296.5 1944.5,289.5C 1939.83,289.5 1935.17,289.5 1930.5,289.5C 1930.02,239.795 1930.52,190.128 1932,140.5C 1941.27,103.233 1964.77,81.0663 2002.5,74C 2039.95,70.9718 2068.12,85.4718 2087,117.5C 2091.92,132.264 2097.26,146.931 2103,161.5C 2109.61,208.126 2091.11,239.959 2047.5,257C 2040.21,258.493 2032.87,259.659 2025.5,260.5C 2019.79,260.158 2014.12,259.492 2008.5,258.5 Z"/></g>
<g><path style="opacity:1" fill="#424242" d="M 1379.5,75.5 C 1397,74.3381 1414.66,74.1714 1432.5,75C 1431.96,75.7172 1431.29,76.2172 1430.5,76.5C 1413.67,75.5034 1396.67,75.1701 1379.5,75.5 Z"/></g>
<g><path style="opacity:1" fill="#555555" d="M 1152.5,74.5 C 1150.49,75.9238 1148.15,76.5905 1145.5,76.5C 1147.51,75.0762 1149.85,74.4095 1152.5,74.5 Z"/></g>
<g><path style="opacity:1" fill="#030303" d="M 892.5,76.5 C 907.5,76.5 922.5,76.5 937.5,76.5C 937.5,85.1667 937.5,93.8333 937.5,102.5C 940.167,102.5 942.833,102.5 945.5,102.5C 945.333,128.835 945.5,155.169 946,181.5C 964.227,198.739 982.561,198.739 1001,181.5C 1004.11,176.725 1006.78,171.725 1009,166.5C 1009.5,136.502 1009.67,106.502 1009.5,76.5C 1024.5,76.5 1039.5,76.5 1054.5,76.5C 1054.5,85.1667 1054.5,93.8333 1054.5,102.5C 1057.5,102.5 1060.5,102.5 1063.5,102.5C 1063.67,131.835 1063.5,161.169 1063,190.5C 1056.48,228.02 1034.65,250.853 997.5,259C 964.641,263.384 938.475,252.218 919,225.5C 912.434,212.599 905.434,199.932 898,187.5C 895.823,180.616 894.157,173.616 893,166.5C 892.5,136.502 892.333,106.502 892.5,76.5 Z"/></g>
<g><path style="opacity:1" fill="#fec62e" d="M 612.5,177.5 C 611.502,212.996 611.168,248.663 611.5,284.5C 609.167,284.5 606.833,284.5 604.5,284.5C 604.5,238.167 604.5,191.833 604.5,145.5C 609.449,115.78 625.782,94.9469 653.5,83C 688.564,71.1068 718.397,78.9401 743,106.5C 747.47,112.604 751.304,119.104 754.5,126C 754.333,126.5 754.167,127 754,127.5C 730.447,101.491 701.614,93.3247 667.5,103C 637.391,114.785 619.225,136.618 613,168.5C 612.502,171.482 612.335,174.482 612.5,177.5 Z"/></g>
<g><path style="opacity:1" fill="#fec62e" d="M 806.5,230.5 C 803.833,230.5 801.167,230.5 798.5,230.5C 798.5,199.5 798.5,168.5 798.5,137.5C 803.612,107.217 820.945,87.7174 850.5,79C 854.79,78.0775 859.123,77.5775 863.5,77.5C 863.5,85.1667 863.5,92.8333 863.5,100.5C 840.442,105.445 823.609,118.445 813,139.5C 811.716,142.807 810.383,146.141 809,149.5C 808.333,153.5 807.667,157.5 807,161.5C 806.5,184.498 806.333,207.498 806.5,230.5 Z"/></g>
<g><path style="opacity:1" fill="#fec62e" d="M 1158.5,77.5 C 1186.51,75.7059 1209.68,85.3725 1228,106.5C 1233.03,112.891 1236.69,119.891 1239,127.5C 1216.62,103.022 1189.12,94.5221 1156.5,102C 1127.16,112.336 1108.66,132.502 1101,162.5C 1099.56,185.461 1099.06,208.461 1099.5,231.5C 1096.5,231.5 1093.5,231.5 1090.5,231.5C 1090.33,202.498 1090.5,173.498 1091,144.5C 1098.8,107.195 1121.3,84.8621 1158.5,77.5 Z"/></g>
<g><path style="opacity:1" fill="#656565" d="M 1382.5,79.5 C 1396.01,78.1745 1409.67,78.1745 1423.5,79.5C 1423.38,80.1067 1423.04,80.44 1422.5,80.5C 1409.34,79.5044 1396.01,79.1711 1382.5,79.5 Z"/></g>
<g><path style="opacity:1" fill="#fec62e" d="M 1809.5,77.5 C 1843.96,75.2239 1870.13,88.5572 1888,117.5C 1889.37,120.534 1890.37,123.534 1891,126.5C 1864.4,99.3942 1833.23,92.5608 1797.5,106C 1762.49,124.705 1746.99,153.871 1751,193.5C 1737.05,164.564 1738.71,136.564 1756,109.5C 1764.74,98.7585 1775.24,90.2585 1787.5,84C 1794.77,81.1882 1802.1,79.0215 1809.5,77.5 Z"/></g>
<g><path style="opacity:1" fill="#fec62e" d="M 1944.5,172.5 C 1943.5,209.663 1943.17,246.996 1943.5,284.5C 1940.83,284.5 1938.17,284.5 1935.5,284.5C 1935.33,237.165 1935.5,189.832 1936,142.5C 1943.54,109.292 1963.71,88.1253 1996.5,79C 2037.14,73.4838 2066.81,88.8171 2085.5,125C 2085.33,125.5 2085.17,126 2085,126.5C 2059.15,100.156 2028.65,92.9897 1993.5,105C 1964.6,118.394 1948.27,140.894 1944.5,172.5 Z"/></g>
<g><path style="opacity:1" fill="#fec62e" d="M 1382.5,79.5 C 1396.01,79.1711 1409.34,79.5044 1422.5,80.5C 1417.03,86.8108 1411.7,93.3108 1406.5,100C 1401.47,100.171 1396.47,100.671 1391.5,101.5C 1375.18,121.817 1358.51,141.817 1341.5,161.5C 1340.01,159.874 1338.51,158.208 1337,156.5C 1336.33,148.833 1336.33,141.167 1337,133.5C 1352.41,115.602 1367.57,97.6022 1382.5,79.5 Z"/></g>
<g><path style="opacity:1" fill="#fec62e" d="M 1474.5,79.5 C 1479.18,79.3342 1483.85,79.5008 1488.5,80C 1490.72,82.2227 1493.39,83.556 1496.5,84C 1500.49,84.4988 1504.49,84.6655 1508.5,84.5C 1508.5,89.5 1508.5,94.5 1508.5,99.5C 1499.65,99.1736 1490.98,99.507 1482.5,100.5C 1481.5,143.663 1481.17,186.997 1481.5,230.5C 1479.17,230.5 1476.83,230.5 1474.5,230.5C 1474.5,180.167 1474.5,129.833 1474.5,79.5 Z"/></g>
<g><path style="opacity:1" fill="#c1c1c1" d="M 932.5,81.5 C 920.833,81.5 909.167,81.5 897.5,81.5C 897.5,110.167 897.5,138.833 897.5,167.5C 896.502,138.671 896.169,109.671 896.5,80.5C 908.678,80.1716 920.678,80.5049 932.5,81.5 Z"/></g>
<g><path style="opacity:1" fill="#fec62e" d="M 932.5,81.5 C 932.5,88.5 932.5,95.5 932.5,102.5C 923.5,102.5 914.5,102.5 905.5,102.5C 905.364,133.209 905.531,163.876 906,194.5C 901.602,186.031 898.769,177.031 897.5,167.5C 897.5,138.833 897.5,110.167 897.5,81.5C 909.167,81.5 920.833,81.5 932.5,81.5 Z"/></g>
<g><path style="opacity:1" fill="#8d8d8d" d="M 1050.5,81.5 C 1038.5,81.5 1026.5,81.5 1014.5,81.5C 1014.83,108.005 1014.5,134.339 1013.5,160.5C 1013.5,133.833 1013.5,107.167 1013.5,80.5C 1026.01,80.1714 1038.34,80.5048 1050.5,81.5 Z"/></g>
<g><path style="opacity:1" fill="#fec62e" d="M 1050.5,81.5 C 1050.5,88.5 1050.5,95.5 1050.5,102.5C 1041.17,102.5 1031.83,102.5 1022.5,102.5C 1022.67,131.502 1022.5,160.502 1022,189.5C 1016.9,208.769 1004.4,219.103 984.5,220.5C 965.129,218.652 952.462,208.485 946.5,190C 952.545,193.671 959.212,196.338 966.5,198C 993.578,199.752 1009.24,187.252 1013.5,160.5C 1014.5,134.339 1014.83,108.005 1014.5,81.5C 1026.5,81.5 1038.5,81.5 1050.5,81.5 Z"/></g>
<g><path style="opacity:1" fill="#fec62e" d="M 1682.5,80.5 C 1689.83,80.5 1697.17,80.5 1704.5,80.5C 1704.5,87.5 1704.5,94.5 1704.5,101.5C 1697.17,101.5 1689.83,101.5 1682.5,101.5C 1682.5,94.5 1682.5,87.5 1682.5,80.5 Z"/></g>
<g><path style="opacity:1" fill="#919191" d="M 193.5,87.5 C 193.167,87.5 192.833,87.5 192.5,87.5C 185.167,87.5 177.833,87.5 170.5,87.5C 170.832,151.002 170.499,214.336 169.5,277.5C 169.5,213.833 169.5,150.167 169.5,86.5C 177.684,86.1743 185.684,86.5076 193.5,87.5 Z"/></g>
<g><path style="opacity:1" fill="#fec62e" d="M 192.5,87.5 C 192.5,103.167 192.5,118.833 192.5,134.5C 191.504,119.342 191.17,104.009 191.5,88.5C 184.833,88.5 178.167,88.5 171.5,88.5C 171.5,151.833 171.5,215.167 171.5,278.5C 163.5,278.5 155.5,278.5 147.5,278.5C 147.5,278.167 147.5,277.833 147.5,277.5C 154.833,277.5 162.167,277.5 169.5,277.5C 170.499,214.336 170.832,151.002 170.5,87.5C 177.833,87.5 185.167,87.5 192.5,87.5 Z"/></g>
<g><path style="opacity:1" fill="#989898" d="M 192.5,87.5 C 192.833,87.5 193.167,87.5 193.5,87.5C 194.496,102.991 194.83,118.658 194.5,134.5C 202.167,134.5 209.833,134.5 217.5,134.5C 217.175,142.352 217.508,150.018 218.5,157.5C 225.648,158.492 232.981,158.825 240.5,158.5C 232.684,159.492 224.684,159.826 216.5,159.5C 216.5,151.5 216.5,143.5 216.5,135.5C 208.316,135.826 200.316,135.492 192.5,134.5C 192.5,118.833 192.5,103.167 192.5,87.5 Z"/></g>
<g><path style="opacity:1" fill="#fec62e" d="M 482.5,90.5 C 494.099,89.123 505.099,90.9563 515.5,96C 521.928,99.6974 525.095,105.197 525,112.5C 506.943,107.478 488.943,102.145 471,96.5C 469.392,96.0261 469.226,95.3594 470.5,94.5C 474.511,92.8395 478.511,91.5062 482.5,90.5 Z"/></g>
<g><path style="opacity:1" fill="#fec62e" d="M 465.5,98.5 C 487.804,105.545 510.137,112.712 532.5,120C 544.807,126.728 554.307,136.228 561,148.5C 561.837,150.821 562.17,153.155 562,155.5C 553.183,147.172 543.016,141.005 531.5,137C 514.733,132.745 498.067,128.078 481.5,123C 475.749,120.711 470.582,117.545 466,113.5C 463.067,108.456 462.9,103.456 465.5,98.5 Z"/></g>
<g><path style="opacity:1" fill="#9f9f9f" d="M 872.5,99.5 C 873.919,98.5489 875.585,98.2155 877.5,98.5C 877.829,112.344 877.496,126.01 876.5,139.5C 876.5,126.167 876.5,112.833 876.5,99.5C 875.167,99.5 873.833,99.5 872.5,99.5 Z"/></g>
<g><path style="opacity:1" fill="#cecece" d="M 1508.5,84.5 C 1509.49,89.6405 1509.82,94.9738 1509.5,100.5C 1500.5,100.5 1491.5,100.5 1482.5,100.5C 1490.98,99.507 1499.65,99.1736 1508.5,99.5C 1508.5,94.5 1508.5,89.5 1508.5,84.5 Z"/></g>
<g><path style="opacity:1" fill="#474747" d="M 1412.5,99.5 C 1421.01,100.167 1429.68,100.833 1438.5,101.5C 1438.38,102.107 1438.04,102.44 1437.5,102.5C 1428.99,101.833 1420.32,101.167 1411.5,100.5C 1411.62,99.8933 1411.96,99.56 1412.5,99.5 Z"/></g>
<g><path style="opacity:1" fill="#606060" d="M 421.5,94.5 C 421.827,99.544 421.494,104.544 420.5,109.5C 419.893,109.376 419.56,109.043 419.5,108.5C 420.167,103.833 420.833,99.1667 421.5,94.5 Z"/></g>
<g><path style="opacity:1" fill="#c5c5c5" d="M 1474.5,79.5 C 1474.5,129.833 1474.5,180.167 1474.5,230.5C 1476.83,230.5 1479.17,230.5 1481.5,230.5C 1481.17,186.997 1481.5,143.663 1482.5,100.5C 1482.5,144.167 1482.5,187.833 1482.5,231.5C 1479.5,231.5 1476.5,231.5 1473.5,231.5C 1473.17,180.664 1473.5,129.997 1474.5,79.5 Z"/></g>
<g><path style="opacity:1" fill="#252525" d="M 1513.5,100.5 C 1516.5,100.5 1519.5,100.5 1522.5,100.5C 1522.5,152.833 1522.5,205.167 1522.5,257.5C 1509.17,257.5 1495.83,257.5 1482.5,257.5C 1482.5,257.167 1482.5,256.833 1482.5,256.5C 1495.5,256.5 1508.5,256.5 1521.5,256.5C 1521.5,204.833 1521.5,153.167 1521.5,101.5C 1518.61,101.806 1515.95,101.473 1513.5,100.5 Z"/></g>
<g><path style="opacity:1" fill="#575757" d="M 572.5,103.5 C 573.482,106.962 573.815,110.629 573.5,114.5C 559.656,114.171 545.99,114.504 532.5,115.5C 531.711,115.217 531.044,114.717 530.5,114C 544.496,113.5 558.496,113.333 572.5,113.5C 572.5,110.167 572.5,106.833 572.5,103.5 Z"/></g>
<g><path style="opacity:1" fill="#fec62e" d="M 685.5,139.5 C 698.241,137.874 709.408,141.207 719,149.5C 721.018,172.133 711.185,186.633 689.5,193C 675.324,196.163 663.49,192.33 654,181.5C 652.499,169.16 656.332,158.827 665.5,150.5C 671.42,145.212 678.086,141.545 685.5,139.5 Z"/></g>
<g><path style="opacity:1" fill="#9d9d9d" d="M 1835.5,140.5 C 1829.8,140.375 1824.13,140.708 1818.5,141.5C 1821.53,139.981 1824.86,139.315 1828.5,139.5C 1831.03,139.503 1833.36,139.837 1835.5,140.5 Z"/></g>
<g><path style="opacity:1" fill="#fec62e" d="M 1835.5,140.5 C 1843.63,141.149 1850.8,144.149 1857,149.5C 1858.77,169.471 1850.6,183.638 1832.5,192C 1817.14,196.283 1803.64,193.117 1792,182.5C 1790.37,162.257 1799.21,148.59 1818.5,141.5C 1824.13,140.708 1829.8,140.375 1835.5,140.5 Z"/></g>
<g><path style="opacity:1" fill="#a1a1a1" d="M 2030.5,140.5 C 2024.46,140.36 2018.46,140.693 2012.5,141.5C 2015.7,139.97 2019.2,139.304 2023,139.5C 2025.69,139.503 2028.19,139.836 2030.5,140.5 Z"/></g>
<g><path style="opacity:1" fill="#fec62e" d="M 2030.5,140.5 C 2038.61,141.303 2045.44,144.636 2051,150.5C 2052.15,172.396 2042.31,186.563 2021.5,193C 2007.13,195.985 1994.96,192.152 1985,181.5C 1984.9,161.77 1994.07,148.437 2012.5,141.5C 2018.46,140.693 2024.46,140.36 2030.5,140.5 Z"/></g>
<g><path style="opacity:1" fill="#bdbdbd" d="M 798.5,137.5 C 798.5,168.5 798.5,199.5 798.5,230.5C 801.167,230.5 803.833,230.5 806.5,230.5C 803.713,231.477 800.713,231.81 797.5,231.5C 797.168,199.996 797.502,168.662 798.5,137.5 Z"/></g>
<g><path style="opacity:1" fill="#202020" d="M 600.5,142.5 C 600.5,191.167 600.5,239.833 600.5,288.5C 604.702,288.183 608.702,288.517 612.5,289.5C 608.167,289.5 603.833,289.5 599.5,289.5C 599.168,240.33 599.501,191.33 600.5,142.5 Z"/></g>
<g><path style="opacity:1" fill="#464646" d="M 1088.5,137.5 C 1087.56,170.152 1087.23,202.819 1087.5,235.5C 1086.34,204.669 1086.17,173.669 1087,142.5C 1087.2,140.618 1087.7,138.952 1088.5,137.5 Z"/></g>
<g><path style="opacity:1" fill="#363636" d="M 1209.5,154.5 C 1208.5,179.661 1208.17,204.995 1208.5,230.5C 1208.5,230.833 1208.5,231.167 1208.5,231.5C 1207.17,205.664 1207.17,179.664 1208.5,153.5C 1209.11,153.624 1209.44,153.957 1209.5,154.5 Z"/></g>
<g><path style="opacity:1" fill="#bebebe" d="M 604.5,145.5 C 604.5,191.833 604.5,238.167 604.5,284.5C 606.833,284.5 609.167,284.5 611.5,284.5C 611.168,248.663 611.502,212.996 612.5,177.5C 612.5,213.5 612.5,249.5 612.5,285.5C 609.5,285.5 606.5,285.5 603.5,285.5C 603.168,238.664 603.501,191.997 604.5,145.5 Z"/></g>
<g><path style="opacity:1" fill="#555555" d="M 725.5,155.5 C 724.833,157.167 724.167,158.833 723.5,160.5C 723.337,158.143 723.503,155.81 724,153.5C 724.717,154.044 725.217,154.711 725.5,155.5 Z"/></g>
<g><path style="opacity:1" fill="#fec62e" d="M 1209.5,154.5 C 1213.04,159.958 1215.37,165.958 1216.5,172.5C 1216.5,191.833 1216.5,211.167 1216.5,230.5C 1213.83,230.5 1211.17,230.5 1208.5,230.5C 1208.17,204.995 1208.5,179.661 1209.5,154.5 Z"/></g>
<g><path style="opacity:1" fill="#fec62e" d="M 1861.5,155.5 C 1863.07,155.937 1864.24,156.937 1865,158.5C 1874.39,177.448 1871.89,194.615 1857.5,210C 1841.45,221.378 1824.78,222.378 1807.5,213C 1804.33,209.833 1801.17,206.667 1798,203.5C 1796.24,199.642 1794.24,195.975 1792,192.5C 1791.33,190.833 1791.33,189.167 1792,187.5C 1810.31,201.916 1828.81,202.083 1847.5,188C 1856.97,179.233 1861.63,168.4 1861.5,155.5 Z"/></g>
<g><path style="opacity:1" fill="#fec62e" d="M 725.5,155.5 C 732.999,168.033 734.499,181.366 730,195.5C 718.386,216.711 700.886,223.878 677.5,217C 664.525,211.195 656.691,201.361 654,187.5C 669.775,200.237 686.609,201.737 704.5,192C 715.563,184.378 721.896,173.878 723.5,160.5C 724.167,158.833 724.833,157.167 725.5,155.5 Z"/></g>
<g><path style="opacity:1" fill="#fec62e" d="M 2055.5,154.5 C 2065.67,168.103 2067.17,182.77 2060,198.5C 2044.84,220.499 2025.34,225.333 2001.5,213C 1992.87,206.418 1987.7,197.918 1986,187.5C 2004.81,202.194 2023.64,202.027 2042.5,187C 2051.04,177.883 2055.37,167.049 2055.5,154.5 Z"/></g>
<g><path style="opacity:1" fill="#d3d3d3" d="M 1336.5,163.5 C 1338.85,164.543 1339.02,165.876 1337,167.5C 1336.51,166.207 1336.34,164.873 1336.5,163.5 Z"/></g>
<g><path style="opacity:1" fill="#888888" d="M 1908.5,160.5 C 1910.12,163.171 1910.78,166.171 1910.5,169.5C 1909.34,166.727 1908.68,163.727 1908.5,160.5 Z"/></g>
<g><path style="opacity:1" fill="#fec62e" d="M 1384.5,166.5 C 1385.5,166.414 1386.33,166.748 1387,167.5C 1403.31,188.644 1419.81,209.644 1436.5,230.5C 1434.83,231.833 1433.17,231.833 1431.5,230.5C 1415.86,210.356 1400.02,190.356 1384,170.5C 1383.42,169.072 1383.59,167.738 1384.5,166.5 Z"/></g>
<g><path style="opacity:1" fill="#fec62e" d="M 407.5,167.5 C 421.833,167.5 436.167,167.5 450.5,167.5C 453.544,179.046 460.877,186.546 472.5,190C 490.219,193.36 506.386,189.86 521,179.5C 524.574,180.905 527.408,183.239 529.5,186.5C 530.662,191.131 530.828,195.798 530,200.5C 526.079,204.539 521.579,207.706 516.5,210C 509.881,211.489 503.215,212.655 496.5,213.5C 483.897,213.83 473.73,209.163 466,199.5C 463.978,196.458 462.811,193.125 462.5,189.5C 447.167,189.5 431.833,189.5 416.5,189.5C 416.665,192.518 416.498,195.518 416,198.5C 409.901,189.107 407.067,178.774 407.5,167.5 Z"/></g>
<g><path style="opacity:1" fill="#b7b7b7" d="M 1216.5,172.5 C 1217.5,191.993 1217.83,211.66 1217.5,231.5C 1214.5,231.5 1211.5,231.5 1208.5,231.5C 1208.5,231.167 1208.5,230.833 1208.5,230.5C 1211.17,230.5 1213.83,230.5 1216.5,230.5C 1216.5,211.167 1216.5,191.833 1216.5,172.5 Z"/></g>
<g><path style="opacity:1" fill="#8d8d8d" d="M 1944.5,172.5 C 1944.5,210.167 1944.5,247.833 1944.5,285.5C 1941.29,285.81 1938.29,285.477 1935.5,284.5C 1938.17,284.5 1940.83,284.5 1943.5,284.5C 1943.17,246.996 1943.5,209.663 1944.5,172.5 Z"/></g>
<g><path style="opacity:1" fill="#373737" d="M 50.5,182.5 C 74.1667,182.5 97.8333,182.5 121.5,182.5C 98.3393,183.498 75.006,183.831 51.5,183.5C 51.8254,191.352 51.492,199.018 50.5,206.5C 50.5,198.5 50.5,190.5 50.5,182.5 Z"/></g>
<g><path style="opacity:1" fill="#080808" d="M 1566.5,186.5 C 1589.23,185.036 1600.9,195.702 1601.5,218.5C 1609.1,225.522 1611.6,234.189 1609,244.5C 1603.15,258.513 1592.65,264.347 1577.5,262C 1565.72,257.613 1559.38,249.113 1558.5,236.5C 1546.98,227.79 1543.48,216.457 1548,202.5C 1552.03,194.442 1558.2,189.109 1566.5,186.5 Z"/></g>
<g><path style="opacity:1" fill="#fec62e" d="M 1704.5,195.5 C 1704.82,201.69 1704.49,207.69 1703.5,213.5C 1691.8,208.054 1684.96,199.054 1683,186.5C 1689.28,191.54 1696.45,194.54 1704.5,195.5 Z"/></g>
<g><path style="opacity:1" fill="#fec62e" d="M 1568.5,190.5 C 1585.61,189.616 1594.94,197.616 1596.5,214.5C 1578.51,208.106 1566.01,213.773 1559,231.5C 1551.74,224.712 1549.07,216.379 1551,206.5C 1554.33,198.28 1560.16,192.946 1568.5,190.5 Z"/></g>
<g><path style="opacity:1" fill="#3d3d3d" d="M 1705.5,190.5 C 1706.83,190.5 1708.17,190.5 1709.5,190.5C 1709.5,198.833 1709.5,207.167 1709.5,215.5C 1708.51,207.684 1708.17,199.684 1708.5,191.5C 1707.21,191.737 1706.21,191.404 1705.5,190.5 Z"/></g>
<g><path style="opacity:1" fill="#979797" d="M 1704.5,195.5 C 1705.82,201.678 1705.82,208.012 1704.5,214.5C 1703.89,214.376 1703.56,214.043 1703.5,213.5C 1704.49,207.69 1704.82,201.69 1704.5,195.5 Z"/></g>
<g><path style="opacity:1" fill="#8f8f8f" d="M 50.5,182.5 C 50.5,190.5 50.5,198.5 50.5,206.5C 43.1667,206.5 35.8333,206.5 28.5,206.5C 27.5024,229.994 27.1691,253.661 27.5,277.5C 27.1667,277.5 26.8333,277.5 26.5,277.5C 26.5,253.5 26.5,229.5 26.5,205.5C 34.1667,205.5 41.8333,205.5 49.5,205.5C 49.1746,197.648 49.508,189.982 50.5,182.5 Z"/></g>
<g><path style="opacity:1" fill="#232323" d="M 28.5,206.5 C 28.5,229.833 28.5,253.167 28.5,276.5C 35.6866,276.175 42.6866,276.509 49.5,277.5C 42.1667,277.5 34.8333,277.5 27.5,277.5C 27.1691,253.661 27.5024,229.994 28.5,206.5 Z"/></g>
<g><path style="opacity:1" fill="#454545" d="M 1715.5,216.5 C 1716.5,216.5 1717.5,216.5 1718.5,216.5C 1718.5,230.167 1718.5,243.833 1718.5,257.5C 1715.29,257.81 1712.29,257.477 1709.5,256.5C 1712.17,256.5 1714.83,256.5 1717.5,256.5C 1718.12,242.92 1717.45,229.587 1715.5,216.5 Z"/></g>
<g><path style="opacity:1" fill="#959595" d="M 1444.5,234.5 C 1445.04,234.56 1445.38,234.893 1445.5,235.5C 1442.57,236.484 1439.57,236.817 1436.5,236.5C 1439.17,235.833 1441.83,235.167 1444.5,234.5 Z"/></g>
<g><path style="opacity:1" fill="#8d8d8d" d="M 1203.5,150.5 C 1204.5,178.662 1204.83,206.995 1204.5,235.5C 1208.83,235.5 1213.17,235.5 1217.5,235.5C 1217.5,242.5 1217.5,249.5 1217.5,256.5C 1230.83,256.5 1244.17,256.5 1257.5,256.5C 1244.01,257.496 1230.34,257.829 1216.5,257.5C 1216.5,250.5 1216.5,243.5 1216.5,236.5C 1212.17,236.5 1207.83,236.5 1203.5,236.5C 1203.5,207.833 1203.5,179.167 1203.5,150.5 Z"/></g>
<g><path style="opacity:1" fill="#bbbbbb" d="M 1469.5,235.5 C 1473.83,235.5 1478.17,235.5 1482.5,235.5C 1482.5,242.5 1482.5,249.5 1482.5,256.5C 1482.5,256.833 1482.5,257.167 1482.5,257.5C 1481.51,250.687 1481.18,243.687 1481.5,236.5C 1477.3,236.817 1473.3,236.483 1469.5,235.5 Z"/></g>
<g><path style="opacity:1" fill="#8d8d8d" d="M 654.5,250.5 C 653.833,270.5 653.167,290.5 652.5,310.5C 652.167,290.156 652.5,269.822 653.5,249.5C 654.107,249.624 654.44,249.957 654.5,250.5 Z"/></g>
<g><path style="opacity:1" fill="#4d4d4d" d="M 847.5,164.5 C 847.5,195.5 847.5,226.5 847.5,257.5C 833.833,257.5 820.167,257.5 806.5,257.5C 806.5,250.167 806.5,242.833 806.5,235.5C 807.491,242.313 807.825,249.313 807.5,256.5C 820.5,256.5 833.5,256.5 846.5,256.5C 846.169,225.662 846.502,194.995 847.5,164.5 Z"/></g>
<g><path style="opacity:1" fill="#555555" d="M 1140.5,176.5 C 1140.5,203.5 1140.5,230.5 1140.5,257.5C 1126.83,257.5 1113.17,257.5 1099.5,257.5C 1099.5,250.167 1099.5,242.833 1099.5,235.5C 1100.49,242.313 1100.82,249.313 1100.5,256.5C 1113.5,256.5 1126.5,256.5 1139.5,256.5C 1139.17,229.661 1139.5,202.995 1140.5,176.5 Z"/></g>
<g><path style="opacity:1" fill="#656565" d="M 2000.5,256.5 C 2003.43,256.565 2006.09,257.232 2008.5,258.5C 2005.5,258.706 2002.84,258.04 2000.5,256.5 Z"/></g>
<g><path style="opacity:1" fill="#b2b2b2" d="M 26.5,277.5 C 26.8333,277.5 27.1667,277.5 27.5,277.5C 34.8333,277.5 42.1667,277.5 49.5,277.5C 49.8333,277.5 50.1667,277.5 50.5,277.5C 50.5,285.5 50.5,293.5 50.5,301.5C 49.508,294.018 49.1746,286.352 49.5,278.5C 41.6484,278.825 33.9818,278.492 26.5,277.5 Z"/></g>
<g><path style="opacity:1" fill="#888888" d="M 145.5,277.5 C 146.167,277.5 146.833,277.5 147.5,277.5C 147.5,277.833 147.5,278.167 147.5,278.5C 146.833,286.167 146.167,293.833 145.5,301.5C 145.5,293.5 145.5,285.5 145.5,277.5 Z"/></g>
<g><path style="opacity:1" fill="#3f3f3f" d="M 50.5,277.5 C 51.492,284.982 51.8254,292.648 51.5,300.5C 82.5,300.5 113.5,300.5 144.5,300.5C 144.175,292.648 144.508,284.982 145.5,277.5C 145.5,285.5 145.5,293.5 145.5,301.5C 113.833,301.5 82.1667,301.5 50.5,301.5C 50.5,293.5 50.5,285.5 50.5,277.5 Z"/></g>
</svg>
